<svg width="2500" height="2500" viewBox="0 0 2500 2500" fill="none" xmlns="http://www.w3.org/2000/svg">
<g clip-path="url(#clip0_3_13)">
<path d="M0 2177.65C0 2355.69 144.326 2500 322.354 2500H2177.64C2355.69 2500 2500 2355.67 2500 2177.65V322.363C2500 144.307 2355.67 0 2177.65 0H322.363C144.307 0 0 144.326 0 322.354V2177.64V2177.65Z" fill="#563D7C"/>
<g filter="url(#filter0_d_3_13)">
<path fill-rule="evenodd" clip-rule="evenodd" d="M1250 2009C954.267 2009 769.433 1840.44 695.5 1503.33C806.4 1671.89 935.783 1735.1 1083.65 1692.96C1168.02 1668.94 1228.31 1599.13 1295.06 1521.92C1403.78 1396.11 1529.63 1250.5 1804.5 1250.5C2100.23 1250.5 2285.07 1419.06 2359 1756.17C2248.1 1587.61 2118.72 1524.4 1970.85 1566.54C1886.48 1590.56 1826.19 1660.37 1759.44 1737.58C1650.72 1863.39 1524.87 2009 1250 2009ZM695.5 1250.5C399.767 1250.5 214.933 1081.94 141 744.833C251.9 913.389 381.283 976.597 529.15 934.458C613.516 910.392 673.813 840.629 740.558 763.421C849.281 637.613 975.132 492 1250 492C1545.73 492 1730.57 660.556 1804.5 997.667C1693.6 829.111 1564.22 765.903 1416.35 808.042C1331.98 832.061 1271.69 901.871 1204.94 979.079C1096.22 1104.89 970.368 1250.5 695.5 1250.5Z" fill="white"/>
<path d="M696.569 1505.86C733.616 1673.03 798.077 1798.47 889.912 1882.21C982.22 1966.39 1102.23 2008.5 1250 2008.5C1387.34 2008.5 1487.42 1972.13 1566.75 1920.05C1646.1 1867.96 1704.7 1800.16 1759.06 1737.25L1759.3 1736.98C1825.92 1659.91 1886.27 1590.1 1970.71 1566.06C2044.76 1544.96 2114.2 1550.23 2179.01 1581.89C2243.23 1613.27 2302.86 1670.53 2357.93 1753.64C2320.88 1586.47 2256.42 1461.03 2164.59 1377.29C2072.28 1293.11 1952.27 1251 1804.5 1251C1667.16 1251 1567.08 1287.37 1487.75 1339.45C1408.4 1391.54 1349.8 1459.34 1295.44 1522.25L1295.2 1522.52C1228.58 1599.59 1168.23 1669.4 1083.79 1693.44C1009.74 1714.54 940.304 1709.27 875.493 1677.61C811.273 1646.23 751.637 1588.97 696.569 1505.86Z" stroke="black"/>
</g>
</g>
<defs>
<filter id="filter0_d_3_13" x="137" y="492" width="2226" height="1525" filterUnits="userSpaceOnUse" color-interpolation-filters="sRGB">
<feFlood flood-opacity="0" result="BackgroundImageFix"/>
<feColorMatrix in="SourceAlpha" type="matrix" values="0 0 0 0 0 0 0 0 0 0 0 0 0 0 0 0 0 0 127 0" result="hardAlpha"/>
<feOffset dy="4"/>
<feGaussianBlur stdDeviation="2"/>
<feComposite in2="hardAlpha" operator="out"/>
<feColorMatrix type="matrix" values="0 0 0 0 0 0 0 0 0 0 0 0 0 0 0 0 0 0 0.25 0"/>
<feBlend mode="normal" in2="BackgroundImageFix" result="effect1_dropShadow_3_13"/>
<feBlend mode="normal" in="SourceGraphic" in2="effect1_dropShadow_3_13" result="shape"/>
</filter>
<clipPath id="clip0_3_13">
<rect width="2500" height="2500" fill="white"/>
</clipPath>
</defs>
</svg>
