<svg width="2500" height="2500" viewBox="0 0 2500 2500" fill="none" xmlns="http://www.w3.org/2000/svg">
<path d="M0 2177.65C0 2355.69 144.326 2500 322.354 2500H2177.64C2355.69 2500 2500 2355.67 2500 2177.65V322.363C2500 144.307 2355.67 0 2177.65 0H322.363C144.307 0 0 144.326 0 322.354V2177.64V2177.65Z" fill="#563D7C"/>
<path fill-rule="evenodd" clip-rule="evenodd" d="M690.472 1069.72C685.747 789.263 814.837 613.795 1077.69 543.364C1471.98 437.713 1600.51 720.227 1810.86 716.689C1951.11 714.337 2052.89 634.239 2116.25 476.384C2120.97 756.842 1991.88 932.31 1729.03 1002.74C1334.74 1108.39 1206.21 825.878 995.861 829.417C855.612 831.768 753.826 911.867 690.472 1069.72Z" fill="white"/>
<path fill-rule="evenodd" clip-rule="evenodd" d="M690.472 1069.72C685.747 789.263 814.837 613.795 1077.69 543.364C1471.98 437.713 1600.51 720.227 1810.86 716.689C1951.11 714.337 2052.89 634.239 2116.25 476.384C2120.97 756.842 1991.88 932.31 1729.03 1002.74C1334.74 1108.39 1206.21 825.878 995.861 829.417C855.612 831.768 753.826 911.867 690.472 1069.72Z" fill="white"/>
<path fill-rule="evenodd" clip-rule="evenodd" d="M690.472 1069.72C685.747 789.263 814.837 613.795 1077.69 543.364C1471.98 437.713 1600.51 720.227 1810.86 716.689C1951.11 714.337 2052.89 634.239 2116.25 476.384C2120.97 756.842 1991.88 932.31 1729.03 1002.74C1334.74 1108.39 1206.21 825.878 995.861 829.417C855.612 831.768 753.826 911.867 690.472 1069.72Z" fill="white"/>
<path fill-rule="evenodd" clip-rule="evenodd" d="M690.472 1069.72C685.747 789.263 814.837 613.795 1077.69 543.364C1471.98 437.713 1600.51 720.227 1810.86 716.689C1951.11 714.337 2052.89 634.239 2116.25 476.384C2120.97 756.842 1991.88 932.31 1729.03 1002.74C1334.74 1108.39 1206.21 825.878 995.861 829.417C855.612 831.768 753.826 911.867 690.472 1069.72Z" fill="white"/>
<path fill-rule="evenodd" clip-rule="evenodd" d="M690.472 1069.72C685.747 789.263 814.837 613.795 1077.69 543.364C1471.98 437.713 1600.51 720.227 1810.86 716.689C1951.11 714.337 2052.89 634.239 2116.25 476.384C2120.97 756.842 1991.88 932.31 1729.03 1002.74C1334.74 1108.39 1206.21 825.878 995.861 829.417C855.612 831.768 753.826 911.867 690.472 1069.72Z" fill="white"/>
<path fill-rule="evenodd" clip-rule="evenodd" d="M690.472 1069.72C685.747 789.263 814.837 613.795 1077.69 543.364C1471.98 437.713 1600.51 720.227 1810.86 716.689C1951.11 714.337 2052.89 634.239 2116.25 476.384C2120.97 756.842 1991.88 932.31 1729.03 1002.74C1334.74 1108.39 1206.21 825.878 995.861 829.417C855.612 831.768 753.826 911.867 690.472 1069.72Z" fill="white"/>
<path fill-rule="evenodd" clip-rule="evenodd" d="M536.548 1553.85C531.822 1273.4 660.913 1097.93 923.765 1027.5C1318.06 921.846 1446.58 1204.36 1656.94 1200.82C1797.19 1198.47 1898.97 1118.37 1962.33 960.517C1967.05 1240.98 1837.96 1416.44 1575.11 1486.87C1180.81 1592.53 1052.29 1310.01 841.936 1313.55C701.688 1315.9 599.902 1396 536.548 1553.85Z" fill="white"/>
<path fill-rule="evenodd" clip-rule="evenodd" d="M536.548 1553.85C531.822 1273.4 660.913 1097.93 923.765 1027.5C1318.06 921.846 1446.58 1204.36 1656.94 1200.82C1797.19 1198.47 1898.97 1118.37 1962.33 960.517C1967.05 1240.98 1837.96 1416.44 1575.11 1486.87C1180.81 1592.53 1052.29 1310.01 841.936 1313.55C701.688 1315.9 599.902 1396 536.548 1553.85Z" fill="white"/>
<path fill-rule="evenodd" clip-rule="evenodd" d="M536.548 1553.85C531.822 1273.4 660.913 1097.93 923.765 1027.5C1318.06 921.846 1446.58 1204.36 1656.94 1200.82C1797.19 1198.47 1898.97 1118.37 1962.33 960.517C1967.05 1240.98 1837.96 1416.44 1575.11 1486.87C1180.81 1592.53 1052.29 1310.01 841.936 1313.55C701.688 1315.9 599.902 1396 536.548 1553.85Z" fill="white"/>
<path fill-rule="evenodd" clip-rule="evenodd" d="M690.472 1069.72C685.747 789.263 814.837 613.795 1077.69 543.364C1471.98 437.713 1600.51 720.227 1810.86 716.689C1951.11 714.337 2052.89 634.239 2116.25 476.384C2120.97 756.842 1991.88 932.31 1729.03 1002.74C1334.74 1108.39 1206.21 825.878 995.861 829.417C855.612 831.768 753.826 911.867 690.472 1069.72Z" fill="white"/>
<path fill-rule="evenodd" clip-rule="evenodd" d="M690.472 1069.72C685.747 789.263 814.837 613.795 1077.69 543.364C1471.98 437.713 1600.51 720.227 1810.86 716.689C1951.11 714.337 2052.89 634.239 2116.25 476.384C2120.97 756.842 1991.88 932.31 1729.03 1002.74C1334.74 1108.39 1206.21 825.878 995.861 829.417C855.612 831.768 753.826 911.867 690.472 1069.72Z" fill="white"/>
<path fill-rule="evenodd" clip-rule="evenodd" d="M690.472 1069.72C685.747 789.263 814.837 613.795 1077.69 543.364C1471.98 437.713 1600.51 720.227 1810.86 716.689C1951.11 714.337 2052.89 634.239 2116.25 476.384C2120.97 756.842 1991.88 932.31 1729.03 1002.74C1334.74 1108.39 1206.21 825.878 995.861 829.417C855.612 831.768 753.826 911.867 690.472 1069.72Z" fill="white"/>
<path fill-rule="evenodd" clip-rule="evenodd" d="M690.472 1069.72C685.747 789.263 814.837 613.795 1077.69 543.364C1471.98 437.713 1600.51 720.227 1810.86 716.689C1951.11 714.337 2052.89 634.239 2116.25 476.384C2120.97 756.842 1991.88 932.31 1729.03 1002.74C1334.74 1108.39 1206.21 825.878 995.861 829.417C855.612 831.768 753.826 911.867 690.472 1069.72Z" fill="white"/>
<path fill-rule="evenodd" clip-rule="evenodd" d="M690.472 1069.72C685.747 789.263 814.837 613.795 1077.69 543.364C1471.98 437.713 1600.51 720.227 1810.86 716.689C1951.11 714.337 2052.89 634.239 2116.25 476.384C2120.97 756.842 1991.88 932.31 1729.03 1002.74C1334.74 1108.39 1206.21 825.878 995.861 829.417C855.612 831.768 753.826 911.867 690.472 1069.72Z" fill="white"/>
<path fill-rule="evenodd" clip-rule="evenodd" d="M690.472 1069.72C685.747 789.263 814.837 613.795 1077.69 543.364C1471.98 437.713 1600.51 720.227 1810.86 716.689C1951.11 714.337 2052.89 634.239 2116.25 476.384C2120.97 756.842 1991.88 932.31 1729.03 1002.74C1334.74 1108.39 1206.21 825.878 995.861 829.417C855.612 831.768 753.826 911.867 690.472 1069.72Z" fill="white"/>
<path fill-rule="evenodd" clip-rule="evenodd" d="M384.725 2032.22C379.999 1751.76 509.09 1576.29 771.942 1505.86C1166.24 1400.21 1294.76 1682.72 1505.11 1679.18C1645.36 1676.83 1747.15 1596.73 1810.5 1438.88C1815.23 1719.34 1686.14 1894.81 1423.28 1965.24C1028.99 2070.89 900.467 1788.37 690.114 1791.91C549.865 1794.26 448.079 1874.36 384.725 2032.22Z" fill="white"/>
<path fill-rule="evenodd" clip-rule="evenodd" d="M384.725 2032.22C379.999 1751.76 509.09 1576.29 771.942 1505.86C1166.24 1400.21 1294.76 1682.72 1505.11 1679.18C1645.36 1676.83 1747.15 1596.73 1810.5 1438.88C1815.23 1719.34 1686.14 1894.81 1423.28 1965.24C1028.99 2070.89 900.467 1788.37 690.114 1791.91C549.865 1794.26 448.079 1874.36 384.725 2032.22Z" fill="white"/>
<path fill-rule="evenodd" clip-rule="evenodd" d="M384.725 2032.22C379.999 1751.76 509.09 1576.29 771.942 1505.86C1166.24 1400.21 1294.76 1682.72 1505.11 1679.18C1645.36 1676.83 1747.15 1596.73 1810.5 1438.88C1815.23 1719.34 1686.14 1894.81 1423.28 1965.24C1028.99 2070.89 900.467 1788.37 690.114 1791.91C549.865 1794.26 448.079 1874.36 384.725 2032.22Z" fill="white"/>
<path fill-rule="evenodd" clip-rule="evenodd" d="M384.725 2032.22C379.999 1751.76 509.09 1576.29 771.942 1505.86C1166.24 1400.21 1294.76 1682.72 1505.11 1679.18C1645.36 1676.83 1747.15 1596.73 1810.5 1438.88C1815.23 1719.34 1686.14 1894.81 1423.28 1965.24C1028.99 2070.89 900.467 1788.37 690.114 1791.91C549.865 1794.26 448.079 1874.36 384.725 2032.22Z" fill="white"/>
<path fill-rule="evenodd" clip-rule="evenodd" d="M384.725 2032.22C379.999 1751.76 509.09 1576.29 771.942 1505.86C1166.24 1400.21 1294.76 1682.72 1505.11 1679.18C1645.36 1676.83 1747.15 1596.73 1810.5 1438.88C1815.23 1719.34 1686.14 1894.81 1423.28 1965.24C1028.99 2070.89 900.467 1788.37 690.114 1791.91C549.865 1794.26 448.079 1874.36 384.725 2032.22Z" fill="white"/>
<path fill-rule="evenodd" clip-rule="evenodd" d="M384.725 2032.22C379.999 1751.76 509.09 1576.29 771.942 1505.86C1166.24 1400.21 1294.76 1682.72 1505.11 1679.18C1645.36 1676.83 1747.15 1596.73 1810.5 1438.88C1815.23 1719.34 1686.14 1894.81 1423.28 1965.24C1028.99 2070.89 900.467 1788.37 690.114 1791.91C549.865 1794.26 448.079 1874.36 384.725 2032.22Z" fill="white"/>
</svg>
